# xmcd
#
# Track frame offsets: 
#        182
#        23477
#        42000
#        57555
#        81882
#        105745
#        132192
#        151787
#        186277
#        197052
#        225487
#        246970
#        266515
#        287982
#
# Disc length: 4231 seconds
#
# Revision: 0
# Processed by: cddbd v1.5.1PL2 Copyright (c) Steve Scherf et al.
# Submitted via: ExactAudioCopy v0.95b3
#
DISCID=ba10850e
DTITLE=Slim, Magic - See What You're Doin' To Me
DYEAR=1900
DGENRE=Blues
TTITLE0=How Long
TTITLE1=Have You Ever Seen A One-Eyed Woman Cry
TTITLE2=See What You're Doin' To Me
TTITLE3=Heart Fixin' Business
TTITLE4=Goin' To New York
TTITLE5=So Mean To Me
TTITLE6=14Th Street Shuffle
TTITLE7=Zoo's Blues
TTITLE8=Teardrop Boogie
TTITLE9=TV Dinner Blues
TTITLE10=Cold Women With Warm Hearts
TTITLE11=I'm Doin' Fine
TTITLE12=Paying The Cost To Be The Boss
TTITLE13=Teardrop
EXTD=
EXTT0=
EXTT1=
EXTT2=
EXTT3=
EXTT4=
EXTT5=
EXTT6=
EXTT7=
EXTT8=
EXTT9=
EXTT10=
EXTT11=
EXTT12=
EXTT13=
PLAYORDER=
